<svg width="24" height="24" viewBox="0 0 24 24" fill="none" xmlns="http://www.w3.org/2000/svg">
<path d="M12 22C10.6167 22 9.31667 21.7373 8.1 21.212C6.88333 20.6867 5.825 19.9743 4.925 19.075C4.025 18.175 3.31267 17.1167 2.788 15.9C2.26333 14.6833 2.00067 13.3833 2 12C2 10.6167 2.26267 9.31667 2.788 8.1C3.31333 6.88333 4.02567 5.825 4.925 4.925C5.825 4.025 6.88333 3.31267 8.1 2.788C9.31667 2.26333 10.6167 2.00067 12 2C13.3833 2 14.6833 2.26267 15.9 2.788C17.1167 3.31333 18.175 4.02567 19.075 4.925C19.975 5.825 20.6877 6.88333 21.213 8.1C21.7383 9.31667 22.0007 10.6167 22 12C22 13.3833 21.7373 14.6833 21.212 15.9C20.6867 17.1167 19.9743 18.175 19.075 19.075C18.175 19.975 17.1167 20.6877 15.9 21.213C14.6833 21.7383 13.3833 22.0007 12 22ZM11 17H13C13.55 17 14.021 16.804 14.413 16.412C14.805 16.02 15.0007 15.5493 15 15V9C15 8.45 14.804 7.979 14.412 7.587C14.02 7.195 13.5493 6.99933 13 7H11C10.45 7 9.979 7.196 9.587 7.588C9.195 7.98 8.99933 8.45067 9 9V15C9 15.55 9.196 16.021 9.588 16.413C9.98 16.805 10.4507 17.0007 11 17ZM11 9H13V15H11V9Z" fill="#0F172A"/>
</svg>
